<svg width="151" height="373" viewBox="0 0 151 373" fill="none" xmlns="http://www.w3.org/2000/svg">
<g style="mix-blend-mode:hard-light" opacity="0.8">
<rect width="125" height="373" fill="#790000"/>
<path d="M9.76 206C9.65333 206 9.6 205.933 9.6 205.8L9.68 178.32C9.68 178.213 9.73333 178.16 9.84 178.16H17.52C19.04 178.16 20.4 178.533 21.6 179.28C22.8 180 23.7467 180.96 24.44 182.16C25.1333 183.36 25.48 184.667 25.48 186.08C25.48 187.227 25.2133 188.293 24.68 189.28C24.1733 190.267 23.56 191.067 22.84 191.68C23.6133 192.453 24.2133 193.347 24.64 194.36C25.0667 195.373 25.28 196.44 25.28 197.56C25.28 199.107 24.9067 200.52 24.16 201.8C23.4133 203.08 22.4 204.107 21.12 204.88C19.8667 205.627 18.4667 206 16.92 206H9.76ZM14.48 189.2H17.52C18.4533 189.2 19.2 188.88 19.76 188.24C20.3467 187.573 20.64 186.853 20.64 186.08C20.64 185.227 20.3333 184.493 19.72 183.88C19.1067 183.24 18.3733 182.92 17.52 182.92H14.48V189.2ZM14.44 201.12H16.92C17.88 201.12 18.7067 200.773 19.4 200.08C20.0933 199.36 20.44 198.52 20.44 197.56C20.44 196.6 20.0933 195.773 19.4 195.08C18.7067 194.387 17.88 194.04 16.92 194.04H14.48L14.44 201.12ZM26.0134 205.8L30.9734 178.32C31.0001 178.213 31.0668 178.16 31.1734 178.16H36.9734C37.0801 178.16 37.1468 178.213 37.1734 178.32L41.9334 205.8C41.9601 205.933 41.9068 206 41.7734 206H37.3334C37.2268 206 37.1601 205.933 37.1334 205.8L36.6934 202.88H31.2534L30.8134 205.8C30.7868 205.933 30.7201 206 30.6134 206H26.1734C26.0668 206 26.0134 205.933 26.0134 205.8ZM32.0534 198.6H35.8934L34.2534 187.36L34.0134 185.88L33.8534 187.36L32.0534 198.6ZM44.6038 206C44.4971 206 44.4438 205.933 44.4438 205.8L44.5238 178.32C44.5238 178.213 44.5771 178.16 44.6838 178.16H52.7638C54.2038 178.16 55.5238 178.52 56.7238 179.24C57.9504 179.933 58.9238 180.88 59.6438 182.08C60.3638 183.253 60.7238 184.587 60.7238 186.08C60.7238 187.067 60.5771 187.96 60.2838 188.76C59.9904 189.533 59.6438 190.2 59.2438 190.76C58.8438 191.293 58.4838 191.693 58.1638 191.96C59.6038 193.56 60.3238 195.44 60.3238 197.6L60.3638 205.8C60.3638 205.933 60.2971 206 60.1638 206H55.6438C55.5371 206 55.4838 205.96 55.4838 205.88V197.6C55.4838 196.64 55.1371 195.813 54.4438 195.12C53.7771 194.4 52.9504 194.04 51.9638 194.04H49.3238L49.2838 205.8C49.2838 205.933 49.2304 206 49.1238 206H44.6038ZM49.3238 189.24H52.7638C53.5904 189.24 54.3238 188.933 54.9638 188.32C55.6038 187.707 55.9238 186.96 55.9238 186.08C55.9238 185.227 55.6038 184.493 54.9638 183.88C54.3504 183.267 53.6171 182.96 52.7638 182.96H49.3238V189.24ZM70.4234 206.4C68.9834 206.4 67.6634 206.04 66.4634 205.32C65.2901 204.573 64.3434 203.6 63.6234 202.4C62.9301 201.173 62.5834 199.827 62.5834 198.36V196.52C62.5834 196.387 62.6501 196.32 62.7834 196.32H67.2634C67.3701 196.32 67.4234 196.387 67.4234 196.52V198.36C67.4234 199.24 67.7168 200 68.3034 200.64C68.8901 201.253 69.5968 201.56 70.4234 201.56C71.2501 201.56 71.9568 201.24 72.5434 200.6C73.1301 199.96 73.4234 199.213 73.4234 198.36C73.4234 197.373 72.7834 196.52 71.5034 195.8C71.0768 195.56 70.4101 195.187 69.5034 194.68C68.5968 194.173 67.7434 193.693 66.9434 193.24C65.4768 192.387 64.3834 191.32 63.6634 190.04C62.9701 188.733 62.6234 187.267 62.6234 185.64C62.6234 184.147 62.9834 182.813 63.7034 181.64C64.4234 180.44 65.3701 179.493 66.5434 178.8C67.7434 178.107 69.0368 177.76 70.4234 177.76C71.8368 177.76 73.1301 178.12 74.3034 178.84C75.5034 179.533 76.4501 180.48 77.1434 181.68C77.8634 182.853 78.2234 184.173 78.2234 185.64V188.92C78.2234 189.027 78.1701 189.08 78.0634 189.08H73.5834C73.4768 189.08 73.4234 189.027 73.4234 188.92L73.3834 185.64C73.3834 184.707 73.0901 183.947 72.5034 183.36C71.9168 182.773 71.2234 182.48 70.4234 182.48C69.5968 182.48 68.8901 182.8 68.3034 183.44C67.7168 184.053 67.4234 184.787 67.4234 185.64C67.4234 186.52 67.6101 187.253 67.9834 187.84C68.3568 188.427 69.0368 188.987 70.0234 189.52C70.1568 189.6 70.4101 189.747 70.7834 189.96C71.1834 190.147 71.6101 190.373 72.0634 190.64C72.5168 190.88 72.9168 191.093 73.2634 191.28C73.6368 191.467 73.8634 191.587 73.9434 191.64C75.2768 192.387 76.3301 193.307 77.1034 194.4C77.8768 195.467 78.2634 196.787 78.2634 198.36C78.2634 199.88 77.9034 201.253 77.1834 202.48C76.4901 203.68 75.5434 204.64 74.3434 205.36C73.1701 206.053 71.8634 206.4 70.4234 206.4ZM88.4453 206.4C87.0053 206.4 85.6853 206.04 84.4853 205.32C83.312 204.573 82.3653 203.6 81.6453 202.4C80.9253 201.173 80.5653 199.827 80.5653 198.36L80.6053 185.68C80.6053 184.213 80.952 182.88 81.6453 181.68C82.3653 180.48 83.3253 179.52 84.5253 178.8C85.7253 178.08 87.032 177.72 88.4453 177.72C89.8853 177.72 91.192 178.08 92.3653 178.8C93.5386 179.52 94.472 180.48 95.1653 181.68C95.8853 182.88 96.2453 184.213 96.2453 185.68L96.2853 198.36C96.2853 199.827 95.9253 201.173 95.2053 202.4C94.512 203.6 93.5653 204.573 92.3653 205.32C91.192 206.04 89.8853 206.4 88.4453 206.4ZM88.4453 201.56C89.2453 201.56 89.9386 201.24 90.5253 200.6C91.1386 199.933 91.4453 199.187 91.4453 198.36L91.4053 185.68C91.4053 184.8 91.1253 184.053 90.5653 183.44C90.0053 182.827 89.2986 182.52 88.4453 182.52C87.6186 182.52 86.912 182.827 86.3253 183.44C85.7386 184.027 85.4453 184.773 85.4453 185.68V198.36C85.4453 199.24 85.7386 200 86.3253 200.64C86.912 201.253 87.6186 201.56 88.4453 201.56ZM99.6866 206C99.4732 206 99.3666 205.907 99.3666 205.72L99.3266 178.48C99.3266 178.267 99.4332 178.16 99.6466 178.16H103.247L110.007 193.92L109.807 178.48C109.807 178.267 109.927 178.16 110.167 178.16H114.127C114.287 178.16 114.367 178.267 114.367 178.48L114.407 205.76C114.407 205.92 114.34 206 114.207 206H110.687L103.767 191.28L104.047 205.68C104.047 205.893 103.927 206 103.687 206H99.6866Z" fill="white"/>
<rect x="125" width="125" height="373" fill="#482525"/>
<rect x="125" width="125" height="373" fill="#5B0B0B"/>
<path d="M158.025 158V153.72H158.905C159.705 153.72 160.372 153.613 160.905 153.4C161.465 153.16 161.918 152.853 162.265 152.48C162.638 152.08 162.905 151.64 163.065 151.16C163.252 150.68 163.345 150.213 163.345 149.76C163.345 148.8 163.025 147.96 162.385 147.24C161.772 146.493 160.812 146.12 159.505 146.12H158.025V141.88H159.505C160.385 141.88 161.105 141.707 161.665 141.36C162.225 141.013 162.638 140.56 162.905 140C163.172 139.44 163.305 138.84 163.305 138.2C163.305 137.587 163.158 136.973 162.865 136.36C162.572 135.747 162.118 135.253 161.505 134.88C160.892 134.48 160.118 134.28 159.185 134.28H158.025V130H159.785C161.278 130 162.545 130.24 163.585 130.72C164.652 131.173 165.518 131.787 166.185 132.56C166.852 133.307 167.345 134.147 167.665 135.08C167.985 136.013 168.145 136.947 168.145 137.88C168.145 139.133 167.905 140.307 167.425 141.4C166.945 142.493 166.278 143.36 165.425 144C165.985 144.4 166.465 144.92 166.865 145.56C167.292 146.2 167.612 146.907 167.825 147.68C168.065 148.427 168.185 149.227 168.185 150.08C168.185 151.44 167.878 152.72 167.265 153.92C166.652 155.12 165.732 156.107 164.505 156.88C163.278 157.627 161.718 158 159.825 158H158.025ZM151.065 158V130H155.905V158H151.065ZM171.192 158V130H176.032V153.16H186.232V158H171.192ZM196.095 158.2C195.509 158.2 194.762 158.053 193.855 157.76C192.975 157.467 192.109 157.013 191.255 156.4C190.402 155.787 189.682 154.973 189.095 153.96C188.509 152.947 188.215 151.72 188.215 150.28V130H193.095V150.28C193.095 150.867 193.229 151.36 193.495 151.76C193.762 152.133 194.069 152.44 194.415 152.68C194.789 152.893 195.135 153.053 195.455 153.16C195.775 153.267 195.989 153.32 196.095 153.32V158.2ZM198.215 158.2V153.32C198.322 153.32 198.535 153.267 198.855 153.16C199.175 153.053 199.522 152.893 199.895 152.68C200.269 152.44 200.589 152.133 200.855 151.76C201.122 151.36 201.255 150.867 201.255 150.28V130H206.095V150.28C206.095 151.72 205.802 152.947 205.215 153.96C204.629 154.973 203.909 155.8 203.055 156.44C202.202 157.053 201.335 157.507 200.455 157.8C199.575 158.067 198.829 158.2 198.215 158.2ZM209.121 158V130H223.681V134.84H213.961V141.64H219.921V146.52H213.961V153.16H223.681V158H209.121ZM145.974 208V203.72H146.854C147.654 203.72 148.321 203.613 148.854 203.4C149.414 203.16 149.868 202.853 150.214 202.48C150.588 202.08 150.854 201.64 151.014 201.16C151.201 200.68 151.294 200.213 151.294 199.76C151.294 198.8 150.974 197.96 150.334 197.24C149.721 196.493 148.761 196.12 147.454 196.12H145.974V191.88H147.454C148.334 191.88 149.054 191.707 149.614 191.36C150.174 191.013 150.588 190.56 150.854 190C151.121 189.44 151.254 188.84 151.254 188.2C151.254 187.587 151.108 186.973 150.814 186.36C150.521 185.747 150.068 185.253 149.454 184.88C148.841 184.48 148.068 184.28 147.134 184.28H145.974V180H147.734C149.228 180 150.494 180.24 151.534 180.72C152.601 181.173 153.468 181.787 154.134 182.56C154.801 183.307 155.294 184.147 155.614 185.08C155.934 186.013 156.094 186.947 156.094 187.88C156.094 189.133 155.854 190.307 155.374 191.4C154.894 192.493 154.228 193.36 153.374 194C153.934 194.4 154.414 194.92 154.814 195.56C155.241 196.2 155.561 196.907 155.774 197.68C156.014 198.427 156.134 199.227 156.134 200.08C156.134 201.44 155.828 202.72 155.214 203.92C154.601 205.12 153.681 206.107 152.454 206.88C151.228 207.627 149.668 208 147.774 208H145.974ZM139.014 208V180H143.854V208H139.014ZM159.141 208V180H163.981V203.16H174.181V208H159.141ZM186.805 208.2V203.32C187.178 203.32 187.551 203.24 187.925 203.08C188.325 202.893 188.685 202.64 189.005 202.32C189.351 202 189.618 201.627 189.805 201.2C190.018 200.773 190.125 200.293 190.125 199.76V188.32C190.125 187.84 190.045 187.387 189.885 186.96C189.725 186.533 189.498 186.147 189.205 185.8C188.938 185.427 188.591 185.147 188.165 184.96C187.765 184.773 187.311 184.68 186.805 184.68V179.8C187.951 179.8 189.018 180.027 190.005 180.48C191.018 180.907 191.898 181.493 192.645 182.24C193.391 182.987 193.965 183.84 194.365 184.8C194.791 185.733 195.005 186.693 195.005 187.68V199.92C195.005 201.147 194.791 202.267 194.365 203.28C193.938 204.293 193.351 205.173 192.605 205.92C191.858 206.64 190.978 207.2 189.965 207.6C188.978 208 187.925 208.2 186.805 208.2ZM184.565 208.2C183.551 208.2 182.551 208 181.565 207.6C180.605 207.173 179.738 206.587 178.965 205.84C178.191 205.093 177.565 204.213 177.085 203.2C176.631 202.187 176.405 201.093 176.405 199.92V187.68C176.405 186.693 176.605 185.733 177.005 184.8C177.431 183.84 178.018 182.987 178.765 182.24C179.511 181.493 180.378 180.907 181.365 180.48C182.378 180.027 183.458 179.8 184.605 179.8V184.68C184.098 184.68 183.631 184.787 183.205 185C182.805 185.187 182.458 185.453 182.165 185.8C181.898 186.147 181.685 186.533 181.525 186.96C181.365 187.387 181.285 187.84 181.285 188.32V199.76C181.285 200.293 181.378 200.787 181.565 201.24C181.778 201.667 182.045 202.04 182.365 202.36C182.685 202.653 183.031 202.893 183.405 203.08C183.805 203.24 184.191 203.32 184.565 203.32V208.2ZM208.602 208.2V203.32C208.975 203.32 209.348 203.24 209.722 203.08C210.122 202.893 210.482 202.64 210.802 202.32C211.148 202 211.415 201.627 211.602 201.2C211.815 200.773 211.922 200.293 211.922 199.76V188.32C211.922 187.84 211.842 187.387 211.682 186.96C211.522 186.533 211.295 186.147 211.002 185.8C210.735 185.427 210.388 185.147 209.962 184.96C209.562 184.773 209.108 184.68 208.602 184.68V179.8C209.748 179.8 210.815 180.027 211.802 180.48C212.815 180.907 213.695 181.493 214.442 182.24C215.188 182.987 215.762 183.84 216.162 184.8C216.588 185.733 216.802 186.693 216.802 187.68V199.92C216.802 201.147 216.588 202.267 216.162 203.28C215.735 204.293 215.148 205.173 214.402 205.92C213.655 206.64 212.775 207.2 211.762 207.6C210.775 208 209.722 208.2 208.602 208.2ZM206.362 208.2C205.348 208.2 204.348 208 203.362 207.6C202.402 207.173 201.535 206.587 200.762 205.84C199.988 205.093 199.362 204.213 198.882 203.2C198.428 202.187 198.202 201.093 198.202 199.92V187.68C198.202 186.693 198.402 185.733 198.802 184.8C199.228 183.84 199.815 182.987 200.562 182.24C201.308 181.493 202.175 180.907 203.162 180.48C204.175 180.027 205.255 179.8 206.402 179.8V184.68C205.895 184.68 205.428 184.787 205.002 185C204.602 185.187 204.255 185.453 203.962 185.8C203.695 186.147 203.482 186.533 203.322 186.96C203.162 187.387 203.082 187.84 203.082 188.32V199.76C203.082 200.293 203.175 200.787 203.362 201.24C203.575 201.667 203.842 202.04 204.162 202.36C204.482 202.653 204.828 202.893 205.202 203.08C205.602 203.24 205.988 203.32 206.362 203.32V208.2ZM227.038 208V203.16C227.358 203.16 227.732 203.133 228.158 203.08C228.585 203 228.998 202.867 229.398 202.68C229.825 202.467 230.172 202.16 230.438 201.76C230.732 201.36 230.878 200.813 230.878 200.12V187.88C230.878 187.533 230.798 187.187 230.638 186.84C230.478 186.467 230.238 186.133 229.918 185.84C229.598 185.547 229.198 185.307 228.718 185.12C228.238 184.933 227.678 184.84 227.038 184.84V180C228.478 180 229.745 180.24 230.838 180.72C231.932 181.2 232.838 181.827 233.558 182.6C234.278 183.373 234.825 184.227 235.198 185.16C235.572 186.067 235.758 186.973 235.758 187.88V200.12C235.758 201.693 235.452 203 234.838 204.04C234.225 205.053 233.465 205.853 232.558 206.44C231.652 207 230.705 207.4 229.718 207.64C228.732 207.88 227.838 208 227.038 208ZM220.078 208V180H224.918V208H220.078Z" fill="white"/>
</g>
</svg>
